<svg xmlns="http://www.w3.org/2000/svg" xmlns:xlink="http://www.w3.org/1999/xlink" width="536" zoomAndPan="magnify" viewBox="0 0 402 81.749997" height="109" preserveAspectRatio="xMidYMid meet" version="1.0"><defs><g/><clipPath id="a4b2787127"><path d="M 243.917969 31.449219 L 250.167969 31.449219 L 250.167969 55.890625 L 243.917969 55.890625 Z M 243.917969 31.449219 " clip-rule="nonzero"/></clipPath><clipPath id="ac6ee1dcc8"><path d="M 238.53125 4.171875 L 255.726562 4.171875 L 255.726562 28.84375 L 238.53125 28.84375 Z M 238.53125 4.171875 " clip-rule="nonzero"/></clipPath></defs><g clip-path="url(#a4b2787127)"><path fill="#000000" d="M 243.917969 31.449219 L 250.167969 31.449219 L 250.167969 55.890625 L 243.917969 55.890625 Z M 243.917969 31.449219 " fill-opacity="1" fill-rule="nonzero"/></g><g clip-path="url(#ac6ee1dcc8)"><path fill="#c79918" d="M 247.039062 4.171875 C 242.34375 4.171875 238.53125 7.980469 238.53125 12.679688 C 238.53125 19.0625 247.039062 28.484375 247.039062 28.484375 C 247.039062 28.484375 255.550781 19.0625 255.550781 12.679688 C 255.550781 7.980469 251.738281 4.171875 247.039062 4.171875 Z M 247.039062 15.71875 C 245.363281 15.71875 244 14.359375 244 12.679688 C 244 11.003906 245.363281 9.640625 247.039062 9.640625 C 248.71875 9.640625 250.078125 11.003906 250.078125 12.679688 C 250.078125 14.359375 248.71875 15.71875 247.039062 15.71875 Z M 247.039062 15.71875 " fill-opacity="1" fill-rule="nonzero"/></g><g fill="#000000" fill-opacity="1"><g transform="translate(100.518366, 55.749268)"><g><path d="M 16.0625 -32.609375 L 22.765625 -32.609375 L 22.765625 -10.03125 C 22.765625 -7.957031 22.304688 -6.125 21.390625 -4.53125 C 20.472656 -2.945312 19.175781 -1.71875 17.5 -0.84375 C 15.832031 0.0195312 13.945312 0.453125 11.84375 0.453125 C 8.394531 0.453125 5.707031 -0.421875 3.78125 -2.171875 C 1.851562 -3.929688 0.890625 -6.414062 0.890625 -9.625 L 7.65625 -9.625 C 7.65625 -8.03125 7.988281 -6.851562 8.65625 -6.09375 C 9.332031 -5.332031 10.394531 -4.953125 11.84375 -4.953125 C 13.125 -4.953125 14.144531 -5.390625 14.90625 -6.265625 C 15.675781 -7.148438 16.0625 -8.40625 16.0625 -10.03125 Z M 16.0625 -32.609375 "/></g></g></g><g fill="#000000" fill-opacity="1"><g transform="translate(126.133161, 55.749268)"><g><path d="M 16.53125 0 C 16.226562 -0.582031 16.007812 -1.304688 15.875 -2.171875 C 14.3125 -0.421875 12.273438 0.453125 9.765625 0.453125 C 7.390625 0.453125 5.421875 -0.234375 3.859375 -1.609375 C 2.296875 -2.984375 1.515625 -4.71875 1.515625 -6.8125 C 1.515625 -9.375 2.46875 -11.34375 4.375 -12.71875 C 6.28125 -14.09375 9.03125 -14.785156 12.625 -14.796875 L 15.609375 -14.796875 L 15.609375 -16.1875 C 15.609375 -17.3125 15.320312 -18.207031 14.75 -18.875 C 14.175781 -19.550781 13.269531 -19.890625 12.03125 -19.890625 C 10.9375 -19.890625 10.078125 -19.625 9.453125 -19.09375 C 8.835938 -18.570312 8.53125 -17.859375 8.53125 -16.953125 L 2.0625 -16.953125 C 2.0625 -18.359375 2.492188 -19.65625 3.359375 -20.84375 C 4.222656 -22.039062 5.445312 -22.976562 7.03125 -23.65625 C 8.613281 -24.332031 10.390625 -24.671875 12.359375 -24.671875 C 15.347656 -24.671875 17.71875 -23.921875 19.46875 -22.421875 C 21.21875 -20.921875 22.09375 -18.8125 22.09375 -16.09375 L 22.09375 -5.59375 C 22.113281 -3.300781 22.4375 -1.5625 23.0625 -0.375 L 23.0625 0 Z M 11.171875 -4.5 C 12.128906 -4.5 13.007812 -4.710938 13.8125 -5.140625 C 14.625 -5.566406 15.222656 -6.140625 15.609375 -6.859375 L 15.609375 -11.015625 L 13.1875 -11.015625 C 9.945312 -11.015625 8.222656 -9.894531 8.015625 -7.65625 L 8 -7.28125 C 8 -6.46875 8.28125 -5.800781 8.84375 -5.28125 C 9.414062 -4.757812 10.191406 -4.5 11.171875 -4.5 Z M 11.171875 -4.5 "/></g></g></g><g fill="#000000" fill-opacity="1"><g transform="translate(150.717991, 55.749268)"><g><path d="M 24.296875 -11.890625 C 24.296875 -8.160156 23.445312 -5.171875 21.75 -2.921875 C 20.0625 -0.671875 17.773438 0.453125 14.890625 0.453125 C 12.441406 0.453125 10.460938 -0.398438 8.953125 -2.109375 L 8.953125 9.3125 L 2.484375 9.3125 L 2.484375 -24.234375 L 8.484375 -24.234375 L 8.703125 -21.859375 C 10.273438 -23.734375 12.320312 -24.671875 14.84375 -24.671875 C 17.832031 -24.671875 20.15625 -23.566406 21.8125 -21.359375 C 23.46875 -19.148438 24.296875 -16.101562 24.296875 -12.21875 Z M 17.828125 -12.359375 C 17.828125 -14.609375 17.425781 -16.347656 16.625 -17.578125 C 15.820312 -18.804688 14.660156 -19.421875 13.140625 -19.421875 C 11.109375 -19.421875 9.710938 -18.640625 8.953125 -17.078125 L 8.953125 -7.171875 C 9.742188 -5.566406 11.15625 -4.765625 13.1875 -4.765625 C 16.28125 -4.765625 17.828125 -7.296875 17.828125 -12.359375 Z M 17.828125 -12.359375 "/></g></g></g><g fill="#000000" fill-opacity="1"><g transform="translate(176.534307, 55.749268)"><g><path d="M 16.53125 0 C 16.226562 -0.582031 16.007812 -1.304688 15.875 -2.171875 C 14.3125 -0.421875 12.273438 0.453125 9.765625 0.453125 C 7.390625 0.453125 5.421875 -0.234375 3.859375 -1.609375 C 2.296875 -2.984375 1.515625 -4.71875 1.515625 -6.8125 C 1.515625 -9.375 2.46875 -11.34375 4.375 -12.71875 C 6.28125 -14.09375 9.03125 -14.785156 12.625 -14.796875 L 15.609375 -14.796875 L 15.609375 -16.1875 C 15.609375 -17.3125 15.320312 -18.207031 14.75 -18.875 C 14.175781 -19.550781 13.269531 -19.890625 12.03125 -19.890625 C 10.9375 -19.890625 10.078125 -19.625 9.453125 -19.09375 C 8.835938 -18.570312 8.53125 -17.859375 8.53125 -16.953125 L 2.0625 -16.953125 C 2.0625 -18.359375 2.492188 -19.65625 3.359375 -20.84375 C 4.222656 -22.039062 5.445312 -22.976562 7.03125 -23.65625 C 8.613281 -24.332031 10.390625 -24.671875 12.359375 -24.671875 C 15.347656 -24.671875 17.71875 -23.921875 19.46875 -22.421875 C 21.21875 -20.921875 22.09375 -18.8125 22.09375 -16.09375 L 22.09375 -5.59375 C 22.113281 -3.300781 22.4375 -1.5625 23.0625 -0.375 L 23.0625 0 Z M 11.171875 -4.5 C 12.128906 -4.5 13.007812 -4.710938 13.8125 -5.140625 C 14.625 -5.566406 15.222656 -6.140625 15.609375 -6.859375 L 15.609375 -11.015625 L 13.1875 -11.015625 C 9.945312 -11.015625 8.222656 -9.894531 8.015625 -7.65625 L 8 -7.28125 C 8 -6.46875 8.28125 -5.800781 8.84375 -5.28125 C 9.414062 -4.757812 10.191406 -4.5 11.171875 -4.5 Z M 11.171875 -4.5 "/></g></g></g><g fill="#000000" fill-opacity="1"><g transform="translate(201.119137, 55.749268)"><g><path d="M 28.296875 -9.40625 L 32.6875 -32.609375 L 39.390625 -32.609375 L 32.15625 0 L 25.390625 0 L 20.078125 -21.8125 L 14.78125 0 L 8.015625 0 L 0.78125 -32.609375 L 7.484375 -32.609375 L 11.890625 -9.453125 L 17.265625 -32.609375 L 22.953125 -32.609375 Z M 28.296875 -9.40625 "/></g></g></g><g fill="#000000" fill-opacity="1"><g transform="translate(241.220629, 55.749268)"><g/></g></g><g fill="#000000" fill-opacity="1"><g transform="translate(252.639812, 55.749268)"><g><path d="M 15.609375 -6.6875 C 15.609375 -7.476562 15.210938 -8.101562 14.421875 -8.5625 C 13.640625 -9.019531 12.382812 -9.425781 10.65625 -9.78125 C 4.894531 -10.988281 2.015625 -13.4375 2.015625 -17.125 C 2.015625 -19.28125 2.90625 -21.078125 4.6875 -22.515625 C 6.46875 -23.953125 8.800781 -24.671875 11.6875 -24.671875 C 14.757812 -24.671875 17.21875 -23.945312 19.0625 -22.5 C 20.90625 -21.050781 21.828125 -19.171875 21.828125 -16.859375 L 15.359375 -16.859375 C 15.359375 -17.785156 15.054688 -18.550781 14.453125 -19.15625 C 13.859375 -19.757812 12.929688 -20.0625 11.671875 -20.0625 C 10.578125 -20.0625 9.726562 -19.8125 9.125 -19.3125 C 8.53125 -18.820312 8.234375 -18.195312 8.234375 -17.4375 C 8.234375 -16.726562 8.570312 -16.148438 9.25 -15.703125 C 9.9375 -15.265625 11.082031 -14.882812 12.6875 -14.5625 C 14.300781 -14.238281 15.660156 -13.878906 16.765625 -13.484375 C 20.191406 -12.222656 21.90625 -10.050781 21.90625 -6.96875 C 21.90625 -4.757812 20.957031 -2.96875 19.0625 -1.59375 C 17.164062 -0.226562 14.71875 0.453125 11.71875 0.453125 C 9.6875 0.453125 7.878906 0.09375 6.296875 -0.625 C 4.722656 -1.351562 3.488281 -2.347656 2.59375 -3.609375 C 1.695312 -4.878906 1.25 -6.242188 1.25 -7.703125 L 7.390625 -7.703125 C 7.453125 -6.554688 7.878906 -5.675781 8.671875 -5.0625 C 9.460938 -4.445312 10.519531 -4.140625 11.84375 -4.140625 C 13.082031 -4.140625 14.019531 -4.375 14.65625 -4.84375 C 15.289062 -5.3125 15.609375 -5.925781 15.609375 -6.6875 Z M 15.609375 -6.6875 "/></g></g></g><g fill="#000000" fill-opacity="1"><g transform="translate(276.217073, 55.749268)"><g><path d="M 13.640625 0.453125 C 10.085938 0.453125 7.191406 -0.632812 4.953125 -2.8125 C 2.722656 -5 1.609375 -7.90625 1.609375 -11.53125 L 1.609375 -12.15625 C 1.609375 -14.59375 2.078125 -16.769531 3.015625 -18.6875 C 3.960938 -20.601562 5.296875 -22.078125 7.015625 -23.109375 C 8.742188 -24.148438 10.710938 -24.671875 12.921875 -24.671875 C 16.234375 -24.671875 18.835938 -23.625 20.734375 -21.53125 C 22.640625 -19.445312 23.59375 -16.488281 23.59375 -12.65625 L 23.59375 -10.015625 L 8.171875 -10.015625 C 8.378906 -8.429688 9.007812 -7.160156 10.0625 -6.203125 C 11.113281 -5.242188 12.445312 -4.765625 14.0625 -4.765625 C 16.550781 -4.765625 18.5 -5.671875 19.90625 -7.484375 L 23.09375 -3.921875 C 22.113281 -2.546875 20.796875 -1.472656 19.140625 -0.703125 C 17.484375 0.0664062 15.648438 0.453125 13.640625 0.453125 Z M 12.890625 -19.4375 C 11.609375 -19.4375 10.566406 -19.003906 9.765625 -18.140625 C 8.972656 -17.273438 8.460938 -16.035156 8.234375 -14.421875 L 17.234375 -14.421875 L 17.234375 -14.9375 C 17.210938 -16.363281 16.828125 -17.46875 16.078125 -18.25 C 15.328125 -19.039062 14.265625 -19.4375 12.890625 -19.4375 Z M 12.890625 -19.4375 "/></g></g></g></svg>